<svg id="fbd4b361-5042-4933-b911-56ad557e1ede" data-name="Layer 1" xmlns="http://www.w3.org/2000/svg" viewBox="0 0 512 512"><title>chat-bubble</title><path d="M424,40H88a72.07,72.07,0,0,0-72,72V320a72.08,72.08,0,0,0,72,72h22.24L96.16,462.41a8,8,0,0,0,11.57,8.65L258,392H424a72.08,72.08,0,0,0,72-72V112A72.07,72.07,0,0,0,424,40Zm56,280a56.07,56.07,0,0,1-56,56H256a8,8,0,0,0-3.73.92L115.14,449.11l12.7-63.49A8,8,0,0,0,120,376H88a56.07,56.07,0,0,1-56-56V112A56.06,56.06,0,0,1,88,56H424a56.06,56.06,0,0,1,56,56Z"/></svg>